<svg xmlns="http://www.w3.org/2000/svg" viewBox="0 0 288.79 230.02"><defs><style>.a{fill:#000a3c;}</style></defs><path class="a" d="M122,158c.28-.58-.39-1.3-.81-.81l-8,8c-3.78,3.94-10.19,15-11.44,17.09L92,198.34a1.3,1.3,0,0,1,1.34,1.26,1.31,1.31,0,0,1-.16.68l-8.88,14.91c-2.16,3.7,1.73,6.28,2.26,5.43C100.51,198.15,108.63,200,108.63,200l4.65-10.79a1.07,1.07,0,0,0-.53-1.42l-.07,0c-1.44-.59-3.8-3.25.13-10.64Z"/><path class="a" d="M40.06,220.5l26.88-34.36a5.46,5.46,0,0,1,2.15-1.66l4-1.74,44.21-56.05,6.41-5,13.17-18.33a5.52,5.52,0,0,1,1.23-1.23l5.75-4.18a4.1,4.1,0,0,1,4.77,0l7,4.89a27.38,27.38,0,0,1,8.73,10.11l27.94,49A4.35,4.35,0,0,0,194.5,164c5.48,2.73,8.83,3.21,16,11,3.34,3.63,18,20,38.55,45.49a29.13,29.13,0,0,0,11.6,9.4A144.36,144.36,0,1,0,0,144.32,143.63,143.63,0,0,0,28.23,230,29.66,29.66,0,0,0,40.06,220.5Zm218.09-36-3,9.35-3.05-9.35h-9.84l8-5.78-3-9.35,8,5.78,8-5.78-3,9.35,8,5.78Zm6.84-37.1v9.84l-5.78-8-9.36,3,5.79-8-5.79-7.95,9.36,3,5.78-8v9.83l9.36,3Zm-9.88-52.53,3,9.36H268L260,110l3.05,9.35-8-5.78-8,5.78,3-9.35-8-5.78h9.83ZM234.39,63.06l5.78,8,9.36-3-5.78,8,5.78,8-9.36-3-5.78,8V79l-9.36-3,9.36-3ZM204.86,39.24l8,5.78,8-5.78-3,9.35,8,5.78h-9.84l-3,9.36-3-9.36h-9.84l8-5.78ZM169.41,25.71l9.36,3,5.78-8v9.83l9.36,3-9.36,3v9.84l-5.78-8-9.36,3,5.78-8Zm-28.06-1.92,3-9.36,3,9.36h9.84l-8,5.77,3,9.36-8-5.78-8,5.78,3-9.35-8-5.78Zm-37.11,6.83V20.79l5.78,8,9.36-3-5.78,7.95,5.78,8-9.36-3-5.78,8V36.7l-9.37-3ZM68,39.24,76,45l8-5.78-3,9.36,8,5.78H79l-3,9.36-3-9.36H63.09l8-5.78ZM39.26,68l9.36,3,5.79-8v9.84l9.36,3-9.36,3V88.8h0l-5.78-8-9.36,3,5.78-8Zm-8.62,36.21,3-9.35,3,9.35h9.84l-8,5.78,3,9.36-8-5.78-8,5.78,3-9.36-8-5.78Zm-6.84,37.1v-9.83l5.78,8,9.36-3-5.78,7.95,5.78,8-9.36-3-5.78,8v-9.84l-9.37-3Zm5,37.4-3-9.35,8,5.78,8-5.78-3,9.35,8,5.78H36.72l-3,9.35-3-9.35H20.8Z"/><path class="a" d="M192.32,199.58s12.07,13.92,15.19,19.73l6,9.88c5.12.33,19.26.72,32.87.72a39.45,39.45,0,0,1-3.79-4.37c-23.22-28.79-38-44.8-38.1-44.95-4.7-5.12-6.88-6.1-10.47-7.74l-1.66-.76v4.37a.54.54,0,0,1-1,.27l-34.15-60-.09-.19a19.38,19.38,0,0,0-6.11-7.07l-3.34-2.34-16.28,37.57a3.52,3.52,0,0,1,3.23,4.92l-15.05,34.8h13.82a41.18,41.18,0,0,1,15.57,3.06l3.64,1.49s-11,22.6-11,34.49a24.66,24.66,0,0,0,.9,6.4h25.32l-1.17-7.13a271.14,271.14,0,0,0,30.11,5h0c.69-1,1.82-3.77-.3-8.89L190,201.66C189.14,199.47,191,198.14,192.32,199.58Z"/></svg>