<?xml version="1.0" encoding="UTF-8" standalone="no"?>
<svg
   xmlns:dc="http://purl.org/dc/elements/1.1/"
   xmlns:cc="http://creativecommons.org/ns#"
   xmlns:rdf="http://www.w3.org/1999/02/22-rdf-syntax-ns#"
   xmlns:svg="http://www.w3.org/2000/svg"
   xmlns="http://www.w3.org/2000/svg"
   xmlns:sodipodi="http://sodipodi.sourceforge.net/DTD/sodipodi-0.dtd"
   xmlns:inkscape="http://www.inkscape.org/namespaces/inkscape"
   version="1.1"
   id="Layer_1"
   x="0px"
   y="0px"
   width="1000"
   height="143.42339"
   viewBox="0 0 1000 143.42339"
   enable-background="new 0 0 1000 146.764"
   xml:space="preserve"
   sodipodi:docname="Paramount_Pictures.svg"
   inkscape:version="1.0.2 (e86c870879, 2021-01-15)"><metadata
   id="metadata33"><rdf:RDF><cc:Work
       rdf:about=""><dc:format>image/svg+xml</dc:format><dc:type
         rdf:resource="http://purl.org/dc/dcmitype/StillImage" /><dc:title /></cc:Work></rdf:RDF></metadata><defs
   id="defs31">
	
	
	
	
	
	
	
	
	
	
	
	
</defs><sodipodi:namedview
   pagecolor="#ffffff"
   bordercolor="#666666"
   borderopacity="1"
   objecttolerance="10"
   gridtolerance="10"
   guidetolerance="10"
   inkscape:pageopacity="0"
   inkscape:pageshadow="2"
   inkscape:window-width="1366"
   inkscape:window-height="705"
   id="namedview29"
   showgrid="false"
   inkscape:zoom="0.95878136"
   inkscape:cx="733.25791"
   inkscape:cy="93.122178"
   inkscape:window-x="-8"
   inkscape:window-y="-8"
   inkscape:window-maximized="1"
   inkscape:current-layer="Layer_1"
   inkscape:document-rotation="0"
   showguides="false" />

<g
   id="g93"
   style="fill:#000000"
   transform="scale(1.0004497)"><path
     d="m 562.54381,33.95036 h -11.35769 l -9.06457,20.415216 h -7.85335 l -0.8248,1.760658 h 7.74037 c 0,0 -11.98936,23.421045 -17.53156,34.241228 -4.13686,8.050578 -2.48837,21.457208 8.13565,21.674418 18.88774,0.0902 26.82928,-17.950913 27.3467,-18.77769 0.51658,-0.82878 -1.34125,-1.548459 -1.76161,-0.315299 -5.25087,9.803219 -15.36649,16.403439 -20.5203,16.096159 -1.4393,-0.08 -6.50408,-1.95885 -4.54032,-8.76626 1.56044,-5.411092 20.11699,-44.153558 20.11699,-44.153558 h 11.13145 l 0.62364,-1.760657 H 553.3502 c 10e-4,0 9.19361,-20.216029 9.19361,-20.414215"
     id="path2"
     style="fill:#000000;stroke-width:1.00094" /><path
     d="m 220.31571,55.197358 -23.82843,49.718792 h 13.60881 c 0,0 7.82037,-18.422335 12.38465,-26.407848 3.88967,-6.807407 9.07656,-11.347682 9.07656,-11.347682 0,0 0.60956,8.320833 5.16185,7.942476 11.76206,-0.969913 17.11411,-8.248763 17.11411,-8.248763 0,0 -5.92158,3.7195 -8.14667,2.67852 -2.45631,-1.139072 -1.53945,-5.67134 0.20621,-8.353862 1.75263,-2.682527 3.26005,-4.326073 3.40921,-5.982633 0.20719,-2.267134 -2.16906,-2.363224 -2.98482,-2.472326 -2.38325,-0.307289 -13.03827,9.008478 -16.71074,12.275554 -0.6386,0.561528 -1.34927,-0.105105 -1.14406,-0.924871 0.20618,-0.82878 4.02779,-8.878357 4.02779,-8.878357 h -12.17447 z"
     id="path4"
     style="fill:#000000;stroke-width:1.00094" /><path
     d="m 186.98748,92.952895 c -0.4164,2.685529 -0.64663,4.431176 2.05994,4.847562 5.73239,0.875819 16.81581,-12.486753 16.81581,-12.486753 0,0 1.81373,1.790687 0,3.922693 -4.54026,5.368053 -16.77478,14.856993 -22.89854,16.610643 -2.79464,0.79574 -7.33591,0.67062 -8.14767,-4.43217 -0.53751,-3.353168 0.40339,-7.221808 0.40339,-7.221808 0,0 -16.08816,16.915938 -26.40487,10.934298 -1.02497,-0.6216 -10.13454,-6.766385 4.33408,-27.232635 13.9311,-19.704549 30.53776,-23.113757 36.3102,-23.619234 5.88852,-0.529498 13.64082,-0.677638 13.82298,2.779617 0.21021,3.922692 -15.88296,33.215264 -16.29532,35.897787 m -20.22006,-15.88695 c -7.13769,12.30458 -9.27972,19.813647 -5.25893,21.352095 8.76924,3.36817 24.67622,-27.200602 29.70496,-40.434058 -10.20762,-0.928874 -19.58744,10.7291 -24.44603,19.081963"
     id="path8"
     style="fill:#000000;stroke-width:1.00094" /><path
     d="m 274.85929,93.131064 c -0.42237,2.690534 -0.70394,4.435176 1.97101,4.847563 5.77226,0.875827 16.19047,-11.864168 16.19047,-11.864168 0,0 1.68944,1.781678 0,3.921691 -4.64596,5.360046 -16.04968,14.23941 -22.2443,15.98405 -2.81573,0.80475 -7.32091,0.67863 -8.16564,-4.42717 -0.56313,-3.349159 0.42237,-7.222801 0.42237,-7.222801 0,0 -16.04968,16.920941 -26.32712,10.939301 -1.12629,-0.62158 -10.1648,-6.774382 4.2236,-27.232634 13.9379,-19.708551 30.55073,-23.10575 36.32298,-23.627241 5.91303,-0.52049 13.65631,-0.66963 13.79709,2.787624 0.28158,3.921692 -15.7681,33.210259 -16.19046,35.893785 M 254.586,77.248117 c -7.18013,12.300573 -9.29192,19.804638 -5.20912,21.352102 8.72879,3.357161 24.63768,-27.209616 29.70601,-40.438069 -10.27744,-0.924871 -19.56936,10.732102 -24.49689,19.085967"
     id="path10"
     style="fill:#000000;stroke-width:1.00064" /><path
     id="path12"
     style="fill:#000000;stroke-width:1.00094"
     d="m 362.42175,54.064692 c -11.13244,0.02286 -21.45556,8.876053 -21.45556,8.876056 0,0 0.72493,-8.6697 -5.16156,-8.6697 -10.1066,0 -20.82543,9.173207 -20.82543,9.173207 l 3.59337,-8.248732 H 306.5103 l -22.48178,49.720767 h 12.37585 L 312.1864,70.15495 c 0,0 8.77071,-9.431236 13.30595,-9.387818 3.51435,0.03364 1.55143,6.913627 -0.20919,9.387818 -1.75668,2.468468 -16.61024,34.76134 -16.61024,34.76134 h 12.48043 c 0,0 14.44575,-29.601646 15.6857,-32.290571 1.2363,-2.681152 10.07195,-13.037461 14.95952,-12.986665 3.68451,0.03829 0.72323,7.007464 -0.72085,9.687722 -1.44873,2.688797 -9.216,17.888494 -12.28237,24.859008 -4.47312,10.168486 2.64445,12.199556 4.54257,12.279556 9.90501,0.41746 21.97551,-13.096726 21.97551,-13.096726 l 0.30823,-4.44353 c 0,0 -10.42201,13.517296 -14.04046,10.936863 -1.37322,-0.989938 -1.6337,-1.860368 -1.12529,-3.816208 0.27329,-1.017959 13.36808,-28.381341 15.26197,-32.078715 2.06378,-4.028904 3.11891,-9.915511 -3.29613,-9.902332 z"
     sodipodi:nodetypes="scsccccccssccsssssccccss" /><path
     id="path14"
     style="fill:#000000;stroke-width:1.00094"
     d="m 402.13844,52.199235 c -7.09039,0.03775 -17.08302,3.961019 -26.00094,14.962178 -16.20793,19.99441 -13.10366,36.309547 -2.06082,39.925737 11.03495,3.61363 28.15544,-8.462042 36.6213,-24.349992 1.84176,-3.466262 4.23166,-10.105937 4.23166,-10.105937 0,0 14.23698,-2.889036 17.22671,-10.939614 0.43544,-1.168099 2.04969,-6.394283 2.04969,-6.394283 0,0 -8.35175,14.155672 -18.76461,13.206778 0.15327,-2.027908 1.84374,-10.889513 -7.32705,-15.165783 -1.57115,-0.732628 -3.61253,-1.151669 -5.97594,-1.139084 z m -0.60533,3.802451 c 0.53165,5.67e-4 1.04161,0.107302 1.52973,0.330169 7.55357,3.449201 -15.22815,51.616155 -23.93448,47.244495 -7.38608,-3.708661 11.59365,-47.586213 22.40475,-47.574664 z"
     sodipodi:nodetypes="ssscccccssscss" /><path
     d="m 445.66277,55.197358 c 0,0 -17.02203,35.276205 -17.8388,39.302996 -0.83171,4.023794 2.26325,3.921688 1.95587,3.921688 13.9272,0 30.52872,-43.224684 30.52872,-43.224684 h 11.13961 c 0,0 -16.02718,37.084907 -16.49558,38.377123 -0.63069,1.645549 -0.42839,3.780556 1.72864,4.294045 9.29166,-0.928878 25.51395,-26.886308 25.51395,-26.886308 0,0 -5.80042,12.102387 -6.40701,13.516721 -2.47936,5.667335 -17.22418,17.325301 -17.22418,17.325301 0,0 -11.10848,9.36283 -15.16335,1.44537 -1.42126,-2.7636 -0.93779,-8.874358 -0.93779,-8.874358 0,0 -14.3315,12.400678 -21.95776,12.174468 -3.52223,-0.10405 -6.20472,-2.16504 -6.09076,-7.120716 0.10425,-5.384062 19.80073,-44.250643 19.80073,-44.250643 h 11.44771 z"
     id="path16"
     style="fill:#000000;stroke-width:1.00094" /><path
     d="m 499.40245,55.197358 -4.42818,10.110518 c 0,0 0.1296,0.412388 0.56645,0.04904 2.71362,-2.291156 11.95527,-11.937234 21.60939,-11.912211 10.02545,0.02302 4.84755,12.484751 4.84755,12.484751 l -13.61277,28.570893 c 0,0 -1.34124,3.773559 0.82382,4.023781 3.60337,0.411402 16.91679,-11.759063 16.91679,-11.759063 l 0.0958,2.47633 c 0,0 -18.56458,18.052753 -26.70812,17.329293 -8.15975,-0.7249 -4.23294,-10.215596 -4.23294,-10.215596 l 15.1542,-32.593682 c 0,0 1.35829,-3.300106 -1.84965,-3.300106 -7.11574,0 -12.47974,9.073298 -15.68078,12.995233 -3.14906,3.85839 -15.979,31.461611 -15.979,31.461611 l -11.46391,-0.10007 22.49928,-49.619712 h 11.44165 z"
     id="path18"
     style="fill:#000000;stroke-width:1.00094"
     sodipodi:nodetypes="cccccccccsccssccccc" /><path
     d="M 688.67918,8.2302537e-4 C 726.19897,0.12356505 747.94951,23.378852 747.7096,40.683835 c 0,24.789997 -30.87047,37.644037 -56.63757,37.644037 -16.21975,63.138048 -68.58762,65.610468 -78.24892,64.959488 -38.45152,-3.02624 -36.58806,-24.89409 -36.79585,-27.1181 1.66793,-15.58862 11.84962,-14.57432 13.71801,-14.16979 5.61967,1.42278 6.03426,6.88312 6.03426,9.51364 0,2.62755 -5.16691,7.34265 -5.82648,10.92754 -2.07519,11.338 11.09327,17.93145 24.31907,18.51665 13.61911,0.61076 32.73788,-8.49046 45.72278,-36.92922 1.04161,-3.03603 16.00788,-37.239484 19.12595,-43.210408 1.55889,-2.987922 16.41937,-30.865009 35.32542,-33.900058 -11.21512,10.93246 -15.79319,30.562581 -22.23486,48.068856 6.6534,0.503714 13.67673,-0.169871 24.52178,-9.624572 6.37292,-5.559513 11.9078,-14.293501 13.41654,-28.023392 0.40839,-3.740052 -1.3342,-32.686429 -41.36772,-34.4018057 -54.13877,-2.32710045 -82.40057,37.5242437 -82.40959,63.8509137 0,2.424308 1.04274,21.757892 21.09929,21.649884 10.59205,0 18.96353,-7.237572 18.39384,-11.732705 -0.48108,-3.760675 -2.59966,-8.700604 1.34308,-11.232925 2.47357,-1.580856 9.66834,-2.223018 11.22738,3.847082 1.35125,5.868808 -4.15869,21.448593 -31.17096,21.448593 -15.48355,0 -35.85989,-11.328163 -35.02508,-34.001187 0.84608,-23.012762 33.28249,-56.95896756 96.43921,-56.76553297463"
     id="path6-0"
     style="fill:#000000;stroke-width:0.995049" /><path
     d="m 908.48674,52.801893 -23.82841,49.718797 h 13.60869 c 0,0 7.82038,-18.422341 12.38464,-26.407853 3.88977,-6.807408 9.07669,-11.347683 9.07669,-11.347683 0,0 0.60955,8.320833 5.16184,7.942476 11.76199,-0.969912 17.11401,-8.248763 17.11401,-8.248763 0,0 -5.92157,3.719501 -8.14664,2.678521 -2.45625,-1.139073 -1.53946,-5.67134 0.20623,-8.353863 1.7526,-2.682527 3.26007,-4.326073 3.40925,-5.982633 0.20723,-2.267134 -2.16915,-2.363224 -2.9848,-2.472325 -2.38328,-0.307289 -13.03829,9.008477 -16.71083,12.275553 -0.63858,0.561528 -1.34928,-0.105105 -1.14403,-0.924871 0.20624,-0.82878 4.02782,-8.878357 4.02782,-8.878357 h -12.17446 z"
     id="path4-0"
     style="fill:#000000;stroke-width:1.00094" /><path
     id="path16-4"
     style="fill:#000000;stroke-width:1.00094"
     d="m 854.86947,52.801794 c 0,0 -19.68507,38.867089 -19.79918,44.250961 -0.10424,4.955875 2.5667,7.016315 6.08893,7.120655 7.62626,0.22592 21.95903,-12.174999 21.95903,-12.174999 0,0 -0.47953,6.110683 0.93821,8.876059 4.05839,7.91568 13.28045,-0.47493 17.40266,-3.439268 7.61091,-5.473206 12.50481,-9.663534 14.98416,-15.330869 0.6066,-1.414334 6.40814,-13.517688 6.40814,-13.517688 0,0 -16.18482,26.548216 -25.51662,26.8868 -2.21592,0.0804 -2.34538,-2.644415 -1.72794,-4.294955 0.48164,-1.287345 16.49756,-38.376696 16.49756,-38.376696 h -11.14047 c 0,0 -16.6025,43.224685 -30.5297,43.224685 -0.30739,0 -2.78054,0.104569 -1.9563,-3.920764 0.82425,-4.025271 17.84021,-39.303921 17.84021,-39.303921 z" /><path
     id="path2-7"
     style="fill:#000000;stroke-width:1.00094"
     d="m 836.237,32.389068 c 0,0 -4.70007,9.919864 -9.89135,20.415477 h -7.02714 l -1.33448,2.944011 h 6.90613 c -2.39258,4.79283 -4.78727,9.508872 -6.87035,13.358107 -10.93803,20.212571 -14.37193,27.636947 -9.23643,33.126997 5.1355,5.49006 15.82545,-1.66078 19.94766,-4.62512 7.61091,-5.473206 13.45725,-13.297575 13.45725,-13.297575 l 2.16675,-6.055707 c 0,0 -3.25274,3.585855 -8.31428,8.853434 -4.77909,4.973719 -8.77648,8.271534 -11.26626,8.367504 -5.43471,0.20949 -4.31281,-3.503556 -0.37134,-12.604219 1.88135,-4.344372 7.27126,-16.079927 12.37028,-27.123421 h 11.32754 l 1.1336,-2.944011 h -11.10186 c 4.88531,-10.566592 9.46211,-20.415477 9.46211,-20.415477 z"
     sodipodi:nodetypes="cccccsssccssscccccc" /><path
     id="path64"
     style="fill:#000000;stroke-width:1.00139"
     d="m 764.45703,32.919922 c -3.72686,-6.51e-4 -7.37628,3.550204 -8.15234,7.93164 -0.77578,4.379199 1.6162,7.929688 5.34179,7.929688 3.72673,0 7.37504,-3.547904 8.1504,-7.929688 0.77521,-4.380119 -1.61425,-7.930989 -5.33985,-7.93164 z m -11.83984,19.904297 c 0,0 -8.22867,15.582867 -13.6211,27.103515 -4.54515,6.46521 -8.21795,10.967772 -12.75,14.298828 -2.46877,1.814556 -5.91565,4.857577 -8.73632,6.705078 l 1.66406,3.28125 c 3.9589,-2.89749 10.41854,-7.687058 15.25976,-12.998046 -1.03199,4.914777 -0.19242,13.086056 8.23047,13.005856 8.81564,-0.0839 21.47266,-17.660153 21.47266,-17.660153 l 0.35547,-4.580078 c 0,0 -8.61296,11.064671 -13.78711,13.839843 -5.17402,2.775176 -6.09969,-0.915221 -3.20313,-7.160156 2.89656,-6.244935 17.69532,-35.835937 17.69532,-35.835937 z"
     transform="scale(0.9995505)" /><path
     id="path14-5"
     style="display:inline;fill:#000000;stroke-width:1.00094"
     d="m 799.2552,48.817749 c -8.2485,0.567452 -16.94764,2.835155 -29.83436,20.402082 -12.88686,17.566927 -7.91294,31.411449 1.77542,34.485839 11.06763,3.5121 20.18192,-2.16542 28.47832,-8.366807 8.29639,-6.201388 14.73918,-12.650412 14.73918,-12.650412 l 0.20723,-4.692295 c -20.82093,20.970118 -29.96594,23.363114 -35.1251,20.573303 -5.15903,-2.789808 -4.46016,-9.195927 1.53846,-24.420725 5.99863,-15.224798 16.50643,-23.773713 21.85719,-23.094674 5.35061,0.67904 1.97629,9.241981 -3.58633,13.495406 -5.56262,4.253427 -3.80862,10.891096 2.29523,11.30367 6.104,0.412574 12.66752,-10.479666 12.16433,-16.956551 -0.50334,-6.476886 -6.26107,-10.646288 -14.50957,-10.078836 z"
     sodipodi:nodetypes="zzszcczzzzzzz" /><path
     d="M 112.65192,8.2302537e-4 C 150.1717,0.12356505 171.92225,23.378852 171.68234,40.683835 c 0,24.789997 -30.87047,37.644037 -56.63757,37.644037 C 98.825018,141.46592 46.457149,143.93834 36.795845,143.28736 -1.6556722,140.26112 0.20778664,118.39327 0,116.16926 c 1.667928,-15.58862 11.849614,-14.57432 13.718004,-14.16978 5.619678,1.42277 6.034265,6.88311 6.034265,9.51363 0,2.62755 -5.166914,7.34264 -5.826479,10.92753 -2.075189,11.33801 11.093272,17.93146 24.319068,18.51666 13.619111,0.61076 32.737877,-8.49046 45.722781,-36.92922 1.04161,-3.03603 16.007883,-37.239484 19.125951,-43.210408 1.55889,-2.987922 16.41937,-30.865009 35.32542,-33.900058 -11.21513,10.93246 -15.79319,30.562581 -22.23486,48.068856 6.6534,0.503714 13.67673,-0.169871 24.52178,-9.624572 6.37292,-5.559513 11.9078,-14.293501 13.41654,-28.023392 C 154.53086,33.598454 152.78827,4.652077 112.75475,2.9367003 58.615978,0.60959985 30.354177,40.460944 30.345161,66.787614 c 0,2.424308 1.042737,21.757892 21.09929,21.649884 10.592048,0 18.963525,-7.237572 18.393837,-11.732705 -0.481078,-3.760675 -2.599657,-8.700604 1.343077,-11.232925 2.473577,-1.580856 9.668348,-2.223018 11.227382,3.847082 1.351247,5.868808 -4.158692,21.448593 -31.170955,21.448593 -15.483557,0 -35.85989,-11.328163 -35.025081,-34.001187 C 17.05879,33.753594 49.495201,-0.19261156 112.65192,8.2302537e-4"
     id="path6-0-8"
     style="fill:#000000;stroke-width:0.995049" /><path
     id="path923"
     style="color:#000000;font-style:normal;font-variant:normal;font-weight:normal;font-stretch:normal;font-size:medium;line-height:normal;font-family:sans-serif;font-variant-ligatures:normal;font-variant-position:normal;font-variant-caps:normal;font-variant-numeric:normal;font-variant-alternates:normal;font-variant-east-asian:normal;font-feature-settings:normal;font-variation-settings:normal;text-indent:0;text-align:start;text-decoration:none;text-decoration-line:none;text-decoration-style:solid;text-decoration-color:#000000;letter-spacing:normal;word-spacing:normal;text-transform:none;writing-mode:lr-tb;direction:ltr;text-orientation:mixed;dominant-baseline:auto;baseline-shift:baseline;text-anchor:start;white-space:normal;shape-padding:0;shape-margin:0;inline-size:0;clip-rule:nonzero;display:inline;overflow:visible;visibility:visible;isolation:auto;mix-blend-mode:normal;color-interpolation:sRGB;color-interpolation-filters:linearRGB;solid-color:#000000;solid-opacity:1;vector-effect:none;fill:#000000;fill-opacity:1;fill-rule:nonzero;stroke:none;stroke-width:1.01964;stroke-linecap:butt;stroke-linejoin:miter;stroke-miterlimit:4;stroke-dasharray:none;stroke-dashoffset:0;stroke-opacity:1;color-rendering:auto;image-rendering:auto;shape-rendering:auto;text-rendering:auto;enable-background:accumulate;stop-color:#000000"
     d="m 964.36325,50.613003 c -10.6445,0 -19.1727,5.49505 -25.2561,12.691729 -6.0832,7.196678 -9.6825,16.101473 -10.4094,22.708893 -0.5298,4.814769 0.036,8.964217 1.9477,11.867254 1.912,2.903041 5.16,4.648121 10.3059,4.648121 7.6395,0 14.8043,-3.540093 24.4136,-12.76541 l 1.9835,-7.145446 c -2.9551,3.840354 -6.3125,7.539032 -9.8937,10.367667 -4.1888,3.308583 -8.5509,5.520395 -12.5503,5.520395 -1.9204,0 -3.3805,-0.533192 -4.3474,-1.553359 -0.967,-1.020167 -1.4034,-2.464204 -1.4758,-4.168176 -0.1451,-3.407943 1.1217,-7.975868 2.9893,-13.133838 l 0.1135,-0.310672 0.3306,-0.0239 c 13.506,-0.935005 23.1144,-8.290503 27.2017,-15.318495 2.0437,-3.513998 2.6804,-6.921575 1.854,-9.352011 -0.8264,-2.430434 -3.0474,-4.032755 -7.2071,-4.032755 z m -0.9977,2.12093 c 0.916,0 1.6638,0.496987 1.9835,1.250653 0.3199,0.753666 0.3079,1.695796 0.095,2.780112 -0.4254,2.168629 -1.7137,4.949526 -3.6364,7.75683 -3.8455,5.614608 -10.2546,11.337715 -17.6047,11.620311 l -0.8065,0.02987 0.3166,-0.740833 c 2.7841,-6.502065 6.3276,-12.136606 9.838,-16.168859 3.5102,-4.032253 6.9482,-6.528083 9.814,-6.528086 z" /><path
     id="path899"
     style="color:#000000;font-style:normal;font-variant:normal;font-weight:normal;font-stretch:normal;font-size:medium;line-height:normal;font-family:sans-serif;font-variant-ligatures:normal;font-variant-position:normal;font-variant-caps:normal;font-variant-numeric:normal;font-variant-alternates:normal;font-variant-east-asian:normal;font-feature-settings:normal;font-variation-settings:normal;text-indent:0;text-align:start;text-decoration:none;text-decoration-line:none;text-decoration-style:solid;text-decoration-color:#000000;letter-spacing:normal;word-spacing:normal;text-transform:none;writing-mode:lr-tb;direction:ltr;text-orientation:mixed;dominant-baseline:auto;baseline-shift:baseline;text-anchor:start;white-space:normal;shape-padding:0;shape-margin:0;inline-size:0;clip-rule:nonzero;display:inline;overflow:visible;visibility:visible;isolation:auto;mix-blend-mode:normal;color-interpolation:sRGB;color-interpolation-filters:linearRGB;solid-color:#000000;solid-opacity:1;vector-effect:none;fill:#000000;fill-opacity:1;fill-rule:nonzero;stroke:none;stroke-width:1.01536;stroke-linecap:butt;stroke-linejoin:miter;stroke-miterlimit:4;stroke-dasharray:none;stroke-dashoffset:0;stroke-opacity:1;color-rendering:auto;image-rendering:auto;shape-rendering:auto;text-rendering:auto;enable-background:accumulate;stop-color:#000000"
     d="m 997.73724,36.862 c -2.11,0 -3.6575,1.226261 -4.9954,3.004437 -1.338,1.778174 -2.3984,4.072004 -3.4448,5.996973 -5.8826,10.82179 -11.9591,21.796778 -21.2055,34.952596 -0.7143,1.016119 -1.2309,1.727866 -1.8721,2.635574 v 0.004 0.004 c 0,3e-6 -1.0504,1.428918 -1.995,3.351484 -0.9445,1.922565 -1.7365,4.327584 -1.3505,6.137774 0.4255,1.99553 1.1696,4.52995 2.8497,6.54035 1.6802,2.010402 4.275,3.539882 8.6187,3.539882 3.2033,0 7.5735,-1.08583 11.5339,-3.323722 3.9854,-2.25202 7.2977,-5.01595 10.0128,-11.299851 1.3147,-3.042668 1.5486,-7.54236 0.9519,-12.225972 -0.5968,-4.683611 -2.0117,-9.554092 -3.8869,-13.372219 -1.2078,-2.458853 -2.0749,-5.537837 -2.4552,-8.458032 -0.3802,-2.920196 -0.2944,-5.670617 0.5454,-7.547778 0.7282,-1.627201 2.1075,-2.656845 3.4804,-3.48237 1.3729,-0.825524 2.763,-1.478273 3.5973,-2.234982 1.1402,-1.034402 1.5264,-2.166947 1.4082,-2.938993 -0.1184,-0.772046 -0.6274,-1.283083 -1.7869,-1.283083 z m -15.8074,28.739463 0.3173,1.039157 c 1.7275,5.66424 3.9436,16.006182 2.465,23.621018 -0.6322,3.25601 -2.7638,6.30989 -5.287,8.13676 -1.2616,0.91344 -2.6273,1.52252 -3.9821,1.657902 -1.3548,0.13538 -2.7061,-0.230612 -3.7958,-1.227562 l -0.5056,-0.46207 0.589,-0.34903 c 3.2743,-1.94549 4.4884,-5.65674 4.2478,-8.896301 -0.1203,-1.61978 -0.6111,-3.10553 -1.3505,-4.150682 -0.7395,-1.045153 -1.684,-1.642936 -2.824,-1.638063 l -0.938,0.004 0.5096,-0.787301 c 3.9051,-6.034526 7.3704,-12.079026 9.9613,-16.039524 z" /></g></svg>
